<svg xmlns="http://www.w3.org/2000/svg" width="760" height="360" viewBox="0 0 760 360" role="img">
<rect x="0" y="0" width="760" height="360" fill="white"/>
<line x1="90" y1="280" x2="700" y2="280" stroke="#374151" stroke-width="1.5"/>
<line x1="90" y1="40" x2="90" y2="280" stroke="#374151" stroke-width="1.5"/>
<text x="395.0" y="332.0" text-anchor="middle" font-family="Arial, Helvetica, sans-serif" font-size="14" fill="#111827">Safe false-block rate (%)</text>
<text x="22.0" y="160.0" text-anchor="middle" font-family="Arial, Helvetica, sans-serif" font-size="14" fill="#111827" transform="rotate(-90 22 160.0)">Risky violation rate (%)</text>
<line x1="90.0" y1="280" x2="90.0" y2="285" stroke="#374151"/>
<text x="90.0" y="302.0" text-anchor="middle" font-family="Arial, Helvetica, sans-serif" font-size="11" fill="#6b7280">0</text>
<line x1="85" y1="280.0" x2="90" y2="280.0" stroke="#374151"/>
<text x="78.0" y="284.0" text-anchor="end" font-family="Arial, Helvetica, sans-serif" font-size="11" fill="#6b7280">0</text>
<line x1="242.5" y1="280" x2="242.5" y2="285" stroke="#374151"/>
<text x="242.5" y="302.0" text-anchor="middle" font-family="Arial, Helvetica, sans-serif" font-size="11" fill="#6b7280">25</text>
<line x1="85" y1="220.0" x2="90" y2="220.0" stroke="#374151"/>
<text x="78.0" y="224.0" text-anchor="end" font-family="Arial, Helvetica, sans-serif" font-size="11" fill="#6b7280">25</text>
<line x1="90" y1="220.0" x2="700" y2="220.0" stroke="#e5e7eb"/>
<line x1="395.0" y1="280" x2="395.0" y2="285" stroke="#374151"/>
<text x="395.0" y="302.0" text-anchor="middle" font-family="Arial, Helvetica, sans-serif" font-size="11" fill="#6b7280">50</text>
<line x1="85" y1="160.0" x2="90" y2="160.0" stroke="#374151"/>
<text x="78.0" y="164.0" text-anchor="end" font-family="Arial, Helvetica, sans-serif" font-size="11" fill="#6b7280">50</text>
<line x1="90" y1="160.0" x2="700" y2="160.0" stroke="#e5e7eb"/>
<line x1="547.5" y1="280" x2="547.5" y2="285" stroke="#374151"/>
<text x="547.5" y="302.0" text-anchor="middle" font-family="Arial, Helvetica, sans-serif" font-size="11" fill="#6b7280">75</text>
<line x1="85" y1="100.0" x2="90" y2="100.0" stroke="#374151"/>
<text x="78.0" y="104.0" text-anchor="end" font-family="Arial, Helvetica, sans-serif" font-size="11" fill="#6b7280">75</text>
<line x1="90" y1="100.0" x2="700" y2="100.0" stroke="#e5e7eb"/>
<line x1="700.0" y1="280" x2="700.0" y2="285" stroke="#374151"/>
<text x="700.0" y="302.0" text-anchor="middle" font-family="Arial, Helvetica, sans-serif" font-size="11" fill="#6b7280">100</text>
<line x1="85" y1="40.0" x2="90" y2="40.0" stroke="#374151"/>
<text x="78.0" y="44.0" text-anchor="end" font-family="Arial, Helvetica, sans-serif" font-size="11" fill="#6b7280">100</text>
<circle cx="90.0" cy="40.0" r="8" fill="#4b5563" stroke="white" stroke-width="2"/>
<text x="102.0" y="30.0" text-anchor="start" font-family="Arial, Helvetica, sans-serif" font-size="12" fill="#111827">local</text>
<text x="102.0" y="47.0" text-anchor="start" font-family="Arial, Helvetica, sans-serif" font-size="10" fill="#6b7280">utility 100%</text>
<circle cx="90.0" cy="40.0" r="8" fill="#9ca3af" stroke="white" stroke-width="2"/>
<text x="102.0" y="30.0" text-anchor="start" font-family="Arial, Helvetica, sans-serif" font-size="12" fill="#111827">dlp</text>
<text x="102.0" y="47.0" text-anchor="start" font-family="Arial, Helvetica, sans-serif" font-size="10" fill="#6b7280">utility 100%</text>
<circle cx="90.0" cy="100.0" r="8" fill="#d97706" stroke="white" stroke-width="2"/>
<text x="102.0" y="90.0" text-anchor="start" font-family="Arial, Helvetica, sans-serif" font-size="12" fill="#111827">policy prompt</text>
<text x="102.0" y="107.0" text-anchor="start" font-family="Arial, Helvetica, sans-serif" font-size="10" fill="#6b7280">utility 83%</text>
<circle cx="90.0" cy="280.0" r="8" fill="#059669" stroke="white" stroke-width="2"/>
<text x="102.0" y="270.0" text-anchor="start" font-family="Arial, Helvetica, sans-serif" font-size="12" fill="#111827">traceguard</text>
<text x="102.0" y="287.0" text-anchor="start" font-family="Arial, Helvetica, sans-serif" font-size="10" fill="#6b7280">utility 100%</text>
<text x="380.0" y="24.0" text-anchor="middle" font-family="Arial, Helvetica, sans-serif" font-size="16" fill="#111827">Utility/security tradeoff on the 24-task API subset</text>
</svg>
